<?xml version="1.0" encoding="UTF-8" standalone="no"?>
<svg
   xmlns:dc="http://purl.org/dc/elements/1.1/"
   xmlns:cc="http://creativecommons.org/ns#"
   xmlns:rdf="http://www.w3.org/1999/02/22-rdf-syntax-ns#"
   xmlns:svg="http://www.w3.org/2000/svg"
   xmlns="http://www.w3.org/2000/svg"
   viewBox="0 0 388.98666 57.560001"
   height="57.560001"
   width="388.98666"
   xml:space="preserve"
   id="svg2"
   version="1.1"><metadata
     id="metadata8"><rdf:RDF><cc:Work
         rdf:about=""><dc:format>image/svg+xml</dc:format><dc:type
           rdf:resource="http://purl.org/dc/dcmitype/StillImage" /></cc:Work></rdf:RDF></metadata><defs
     id="defs6" /><g
     transform="matrix(1.3333333,0,0,-1.3333333,0,57.56)"
     id="g10"><g
       transform="scale(0.1)"
       id="g12"><path
         id="path14"
         style="fill:#231f20;fill-opacity:1;fill-rule:nonzero;stroke:none"
         d="m 1007.24,257.871 h 34.43 c 2.42,-20.848 14.3,-29.09 39.04,-29.09 17.94,0 33.7,6.297 33.7,22.305 0,16.973 -16.49,20.359 -42.92,26.426 -31.03,7.031 -59.4,15.273 -59.4,51.406 0,34.18 27.88,51.883 66.43,51.883 39.04,0 64.26,-19.16 66.92,-54.071 h -33.7 c -1.94,17.461 -15.52,26.192 -33.46,26.192 -18.91,0 -31.27,-8.008 -31.27,-20.371 0,-14.063 12.12,-18.184 37.82,-23.762 35.64,-7.762 64.73,-16.25 64.73,-53.582 0,-35.156 -28.36,-54.797 -67.4,-54.797 -47.03,0 -73.71,20.852 -74.92,57.461" /><path
         id="path16"
         style="fill:#231f20;fill-opacity:1;fill-rule:nonzero;stroke:none"
         d="m 1241.02,248.176 v 18.672 c -5.82,-3.399 -14.79,-5.344 -23.03,-7.278 -17.22,-3.875 -25.71,-7.761 -25.71,-19.394 0,-11.641 7.76,-15.762 19.4,-15.762 18.91,0 29.34,11.633 29.34,23.762 z m -0.25,-30.071 h -0.48 c -6.3,-9.453 -15.27,-16.726 -36.61,-16.726 -25.46,0 -43.4,13.34 -43.4,38.066 0,27.403 22.31,36.121 49.95,40.008 20.6,2.91 30.06,4.602 30.06,14.063 0,8.964 -7.03,14.785 -20.85,14.785 -15.52,0 -23.04,-5.574 -24,-17.449 h -29.34 c 0.97,21.816 17.21,40.976 53.58,40.976 37.34,0 52.37,-16.738 52.37,-45.832 v -63.281 c 0,-9.453 1.46,-15.027 4.37,-17.215 v -1.211 h -31.76 c -1.94,2.422 -3.16,8.242 -3.89,13.816" /><path
         id="path18"
         style="fill:#231f20;fill-opacity:1;fill-rule:nonzero;stroke:none"
         d="m 1292.61,328.672 h 31.76 v -16.727 h 0.73 c 6.78,11.395 18.91,20.118 36.12,20.118 15.76,0 28.37,-8.723 34.43,-21.817 h 0.49 c 8.48,13.574 21.58,21.817 37.33,21.817 26.19,0 40.98,-16.973 40.98,-44.122 v -83.652 h -32.97 v 78.074 c 0,14.063 -7.03,21.34 -19.16,21.34 -13.82,0 -22.3,-10.676 -22.3,-27.16 v -72.254 h -32.98 v 78.074 c 0,14.063 -7.03,21.34 -19.16,21.34 -13.33,0 -22.3,-10.676 -22.3,-27.16 v -72.254 h -32.97 v 124.383" /><path
         id="path20"
         style="fill:#231f20;fill-opacity:1;fill-rule:nonzero;stroke:none"
         d="m 1573.48,204.289 v 14.551 h -0.72 c -8.49,-11.399 -18.19,-17.949 -35.65,-17.949 -27.64,0 -43.16,17.703 -43.16,44.863 v 82.918 h 32.74 v -77.344 c 0,-14.551 6.55,-22.547 20.61,-22.547 15.52,0 24.97,11.629 24.97,28.125 v 71.766 h 32.97 V 204.289 h -31.76" /><path
         id="path22"
         style="fill:#231f20;fill-opacity:1;fill-rule:nonzero;stroke:none"
         d="m 1653.07,279.934 h 55.28 c -0.96,15.761 -11.39,26.668 -26.42,26.668 -17.46,0 -25.95,-10.418 -28.86,-26.668 z m -32.97,-13.332 c 0,36.855 24.97,65.461 61.34,65.461 40.01,0 61.35,-30.547 61.35,-74.915 h -90.2 c 2.42,-19.16 13.09,-31.035 31.76,-31.035 12.85,0 20.37,5.813 24,15.274 h 32.49 c -4.6,-22.071 -24.24,-40.731 -56.25,-40.731 -41.22,0 -64.49,28.848 -64.49,65.946" /><path
         id="path24"
         style="fill:#231f20;fill-opacity:1;fill-rule:nonzero;stroke:none"
         d="m 1758.13,377.648 h 32.97 V 204.289 h -32.97 v 173.359" /><path
         id="path26"
         style="fill:#231f20;fill-opacity:1;fill-rule:nonzero;stroke:none"
         d="m 1812.01,328.672 h 32.97 V 204.289 h -32.97 z m 0,48.976 h 32.97 v -29.582 h -32.97 v 29.582" /><path
         id="path28"
         style="fill:#3679bc;fill-opacity:1;fill-rule:nonzero;stroke:none"
         d="M 920.547,0 H 0 V 431.738 H 920.547 V 0" /><path
         id="path30"
         style="fill:#ffffff;fill-opacity:1;fill-rule:nonzero;stroke:none"
         d="m 147.215,174.363 c -0.891,6.895 -0.453,16.879 -0.453,21.778 l 10.371,117.695 h 38.531 L 185.102,195.102 c -2.282,-25.696 7.808,-44.016 33.457,-44.016 26.222,0 40.082,18.637 42.367,41.434 l 10.933,121.316 h 38.512 L 299.727,194.039 c -4.297,-46.121 -34.899,-80.668 -84.364,-80.668 -38.578,0 -63.429,24.934 -68.148,60.992" /><path
         id="path32"
         style="fill:#ffffff;fill-opacity:1;fill-rule:nonzero;stroke:none"
         d="m 319.223,214.223 c 5.027,56.488 43.144,103.336 108.98,103.336 17.348,0 33.973,-3.965 50.598,-14.641 l -4.395,-46.676 c -15.191,19.981 -33.222,23.215 -49.875,23.215 -40.968,0 -63.437,-28.449 -66.66,-64.473 -3.109,-35.07 14.996,-63.589 54.688,-63.589 17.328,0 35.695,4.992 54.937,24.21 l -4.262,-47.91 c -18.726,-10.156 -36.164,-14.777 -53.703,-14.777 -65.152,0 -94.992,48.398 -90.308,101.305" /><path
         id="path34"
         style="fill:#ffffff;fill-opacity:1;fill-rule:nonzero;stroke:none"
         d="m 509.566,313.836 h 38.426 L 533.965,154.012 h 55.058 c 3.875,0 17.004,0.203 20.563,0.41 -0.199,-1.922 -3.504,-36.926 -3.504,-36.926 H 492.137 l 17.429,196.34" /><path
         id="path36"
         style="fill:#ffffff;fill-opacity:1;fill-rule:nonzero;stroke:none"
         d="m 719.617,322.824 -2.66,-0.035 -105.219,-205.293 h 40.84 l 14.785,31.145 h 74.125 l 9.25,-31.145 h 40.735 z m -9.855,-82.289 c 1.277,2.789 2.402,6.235 2.843,8.235 0.012,0.035 0.618,0.035 0.618,0.035 0.207,-2.481 0.66,-5.414 1.461,-8.305 2.101,-8.953 17.082,-58.656 17.082,-58.656 h -48.52 c 0,0 26,57.422 26.516,58.691" /><path
         id="path38"
         style="fill:#231f20;fill-opacity:1;fill-rule:nonzero;stroke:none"
         d="m 1010.71,150.547 h 68.19 v -10.664 h -56.04 v -30.516 h 50.91 V 99.1016 h -50.91 V 65.207 h 57.67 V 53.9961 h -69.82 v 96.5509" /><path
         id="path40"
         style="fill:#231f20;fill-opacity:1;fill-rule:nonzero;stroke:none"
         d="m 1091.36,150.547 h 10.93 V 53.9961 h -10.93 v 96.5509" /><path
         id="path42"
         style="fill:#231f20;fill-opacity:1;fill-rule:nonzero;stroke:none"
         d="m 1124.65,94.5039 h 42 c -0.68,13.9141 -7.83,22.4221 -20.39,22.4221 -12.97,0 -19.99,-9.727 -21.61,-22.4221 z m -11.48,-5.6641 c 0,20.2542 13.23,36.7262 33.09,36.7262 20.93,0 32.14,-16.199 32.14,-39.2965 h -54.02 c 0.81,-14.1797 8.51,-24.9804 22.55,-24.9804 10.13,0 16.88,4.8632 19.31,14.3086 h 10.67 c -3.24,-14.9805 -14.18,-23.4961 -29.98,-23.4961 -21.34,0 -33.76,16.4726 -33.76,36.7382" /><path
         id="path44"
         style="fill:#231f20;fill-opacity:1;fill-rule:nonzero;stroke:none"
         d="m 1185.19,88.8398 c 0,20.2542 12.96,36.7262 33.76,36.7262 16.47,0 27.41,-9.453 29.84,-24.304 h -11.07 c -1.62,9.453 -8.24,15.254 -18.77,15.254 -14.86,0 -22.55,-12.286 -22.55,-27.6762 0,-15.4023 7.69,-27.5507 22.55,-27.5507 11.34,0 18.09,6.4765 19.04,17.2851 h 10.8 c -1.48,-16.7461 -12.42,-26.4726 -29.84,-26.4726 -20.8,0 -33.76,16.4726 -33.76,36.7382" /><path
         id="path46"
         style="fill:#231f20;fill-opacity:1;fill-rule:nonzero;stroke:none"
         d="m 1252.96,123.809 h 10.13 v 22.011 h 10.94 v -22.011 h 13.5 v -8.914 h -13.5 V 69.5234 c 0,-4.8632 2.56,-6.4843 7.02,-6.4843 2.16,0 4.59,0.5468 5.8,0.9453 h 0.41 v -9.4531 c -2.56,-0.5352 -5.54,-0.9375 -8.78,-0.9375 -8.91,0 -15.39,3.6445 -15.39,13.496 v 47.8052 h -10.13 v 8.914" /><path
         id="path48"
         style="fill:#231f20;fill-opacity:1;fill-rule:nonzero;stroke:none"
         d="m 1307.73,112.199 h 0.28 c 4.18,6.746 11.47,12.422 20.79,12.422 2.02,0 3.11,-0.273 4.46,-0.812 v -10.528 h -0.41 c -1.62,0.539 -2.7,0.676 -4.86,0.676 -10.8,0 -20.26,-8.105 -20.26,-21.2031 V 53.9961 h -10.93 v 69.8129 h 10.93 v -11.61" /><path
         id="path50"
         style="fill:#231f20;fill-opacity:1;fill-rule:nonzero;stroke:none"
         d="m 1341.55,123.809 h 10.93 V 53.9961 h -10.93 z m 0,26.738 h 10.93 v -13.504 h -10.93 v 13.504" /><path
         id="path52"
         style="fill:#231f20;fill-opacity:1;fill-rule:nonzero;stroke:none"
         d="m 1363.17,88.8398 c 0,20.2542 12.96,36.7262 33.76,36.7262 16.47,0 27.41,-9.453 29.84,-24.304 h -11.07 c -1.62,9.453 -8.24,15.254 -18.77,15.254 -14.86,0 -22.55,-12.286 -22.55,-27.6762 0,-15.4023 7.69,-27.5507 22.55,-27.5507 11.34,0 18.09,6.4765 19.04,17.2851 h 10.8 c -1.48,-16.7461 -12.42,-26.4726 -29.84,-26.4726 -20.8,0 -33.76,16.4726 -33.76,36.7382" /><path
         id="path54"
         style="fill:#231f20;fill-opacity:1;fill-rule:nonzero;stroke:none"
         d="m 1480.5,79.7852 v 11.8867 c -3.65,-2.2969 -9.99,-4.0547 -15.94,-5.1289 -10.93,-2.0313 -19.71,-3.9141 -19.71,-14.1797 0,-9.3242 7.29,-11.3477 14.45,-11.3477 14.58,0 21.2,10.6641 21.2,18.7696 z m -0.27,-16.0625 h -0.14 c -4.18,-5.4102 -11.34,-11.0743 -23.22,-11.0743 -13.24,0 -23.63,6.211 -23.63,19.4414 0,16.4766 12.96,19.8555 30.38,22.5508 9.85,1.4844 16.74,2.4297 16.74,10.0004 0,7.832 -5.67,12.285 -15.66,12.285 -11.34,0 -17.02,-4.863 -17.42,-15.391 h -10.53 c 0.4,13.496 9.31,23.621 27.81,23.621 14.86,0 25.79,-5.535 25.79,-22.136 V 69.7969 c 0,-5.6758 1.36,-8.7813 7.43,-7.4336 h 0.41 v -7.9688 c -1.35,-0.5351 -3.11,-1.0742 -5.94,-1.0742 -7.16,0 -10.94,3.2422 -12.02,10.4024" /><path
         id="path56"
         style="fill:#231f20;fill-opacity:1;fill-rule:nonzero;stroke:none"
         d="m 1506.39,150.547 h 10.94 V 53.9961 h -10.94 v 96.5509" /><path
         id="path58"
         style="fill:#231f20;fill-opacity:1;fill-rule:nonzero;stroke:none"
         d="m 1578.89,115.441 2.56,-3.378 c 8.38,5.398 12.43,10.261 12.43,17.695 0,6.609 -4.05,10.801 -10.4,10.801 -6.21,0 -10.53,-4.192 -10.53,-10.403 0,-5.398 1.76,-9.316 5.94,-14.715 z m 21.47,-44.023 -22.14,28.4961 c -8.78,-5.8125 -15.4,-11.3477 -15.4,-22.0118 0,-9.5898 7.83,-16.2109 17.42,-16.2109 8.1,0 14.99,3.6524 20.12,9.7266 z m -48.48,6.4843 c 0,14.3047 8.78,21.6016 20.93,29.0317 l -2.7,3.507 c -5.54,7.157 -7.43,12.832 -7.43,19.852 0,10.937 9.05,19.309 20.8,19.309 10.67,0 20.93,-6.614 20.93,-20.118 0,-11.75 -8.5,-18.234 -17.69,-24.171 l 19.18,-24.4419 c 2.02,5.2617 3.24,11.2109 3.24,17.8203 h 9.45 c 0,-9.1797 -2.16,-18.3672 -6.21,-26.0625 l 14.58,-18.6328 h -13.09 l -7.57,9.7266 c -6.48,-7.0235 -15.39,-11.6211 -26.74,-11.6211 -14.04,0 -27.68,10 -27.68,25.8007" /><path
         id="path60"
         style="fill:#231f20;fill-opacity:1;fill-rule:nonzero;stroke:none"
         d="m 1652.72,102.336 c 0,28.359 17.02,50.371 45.78,50.371 22.55,0 36.2,-12.961 38.76,-30.781 h -11.89 c -2.29,12.012 -11.88,20.254 -27.14,20.254 -21.2,0 -33.08,-17.149 -33.08,-39.844 0,-23.6251 13.1,-39.5626 33.22,-39.5626 18.23,0 26.87,12.4219 28.09,26.6016 h 12.01 c -0.13,-9.5898 -4.72,-20.3906 -11.61,-27.1367 -6.75,-6.6211 -16.61,-10.1367 -28.9,-10.1367 -27.41,0 -45.24,20.9375 -45.24,50.2344" /><path
         id="path62"
         style="fill:#231f20;fill-opacity:1;fill-rule:nonzero;stroke:none"
         d="m 1803.06,88.8398 c 0,15.3902 -7.56,27.6762 -22.42,27.6762 -14.85,0 -22.55,-12.286 -22.55,-27.6762 0,-15.4023 7.7,-27.5507 22.55,-27.5507 14.86,0 22.42,12.1484 22.42,27.5507 z m -56.18,0 c 0,20.2542 12.97,36.7262 33.76,36.7262 20.93,0 33.63,-16.472 33.63,-36.7262 0,-20.2656 -12.7,-36.7382 -33.63,-36.7382 -20.79,0 -33.76,16.4726 -33.76,36.7382" /><path
         id="path64"
         style="fill:#231f20;fill-opacity:1;fill-rule:nonzero;stroke:none"
         d="m 1825.01,123.809 h 10.94 v -9.989 h 0.26 c 4.33,6.746 11.75,11.61 20.53,11.61 8.5,0 15.26,-4.317 18.23,-12.422 h 0.27 c 4.46,7.969 12.82,12.422 21.33,12.422 12.43,0 21.2,-7.969 21.2,-22.41 V 53.9961 h -10.94 v 48.4769 c 0,8.64 -5.8,13.777 -12.82,13.777 -9.05,0 -17.15,-7.832 -17.15,-18.7695 V 53.9961 h -10.94 v 48.4769 c 0,8.64 -4.86,13.777 -12.02,13.777 -8.5,0 -17.95,-7.832 -17.95,-18.7695 V 53.9961 h -10.94 v 69.8129" /><path
         id="path66"
         style="fill:#231f20;fill-opacity:1;fill-rule:nonzero;stroke:none"
         d="m 1984.42,88.5664 c 0,15.6636 -6.62,27.5466 -19.85,27.5466 -15.26,0 -22.29,-12.422 -22.29,-27.5466 0,-15.1289 6.09,-27.4141 22.15,-27.4141 13.37,0 19.99,11.6133 19.99,27.4141 z m -52.39,35.2426 h 10.94 v -9.852 h 0.26 c 5.27,7.156 12.3,11.473 22.42,11.473 17.69,0 29.98,-13.504 29.98,-36.7269 0,-22.4218 -11.48,-36.7304 -30.39,-36.7304 -9.45,0 -16.2,2.832 -22.01,10.2656 h -0.26 V 31.582 h -10.94 v 92.227" /><path
         id="path68"
         style="fill:#231f20;fill-opacity:1;fill-rule:nonzero;stroke:none"
         d="m 2050.96,53.9961 v 9.5898 h -0.27 c -4.99,-6.7578 -10.94,-11.2109 -21.06,-11.2109 -14.32,0 -23.5,8.6406 -23.5,23.0938 v 48.3402 h 10.94 V 75.7344 c 0,-9.043 5.81,-14.3086 15.66,-14.3086 11.08,0 18.23,8.3711 18.23,19.4453 v 42.9379 h 10.94 V 53.9961 h -10.94" /><path
         id="path70"
         style="fill:#231f20;fill-opacity:1;fill-rule:nonzero;stroke:none"
         d="m 2070.53,123.809 h 10.12 v 22.011 h 10.94 v -22.011 h 13.51 v -8.914 h -13.51 V 69.5234 c 0,-4.8632 2.57,-6.4843 7.02,-6.4843 2.17,0 4.6,0.5468 5.81,0.9453 h 0.41 v -9.4531 c -2.57,-0.5352 -5.53,-0.9375 -8.78,-0.9375 -8.91,0 -15.4,3.6445 -15.4,13.496 v 47.8052 h -10.12 v 8.914" /><path
         id="path72"
         style="fill:#231f20;fill-opacity:1;fill-rule:nonzero;stroke:none"
         d="m 2120.22,94.5039 h 41.99 c -0.67,13.9141 -7.83,22.4221 -20.39,22.4221 -12.95,0 -19.98,-9.727 -21.6,-22.4221 z m -11.47,-5.6641 c 0,20.2542 13.23,36.7262 33.07,36.7262 20.94,0 32.15,-16.199 32.15,-39.2965 h -54.02 c 0.81,-14.1797 8.51,-24.9804 22.56,-24.9804 10.12,0 16.87,4.8632 19.3,14.3086 h 10.67 c -3.23,-14.9805 -14.18,-23.4961 -29.97,-23.4961 -21.34,0 -33.76,16.4726 -33.76,36.7382" /><path
         id="path74"
         style="fill:#231f20;fill-opacity:1;fill-rule:nonzero;stroke:none"
         d="m 2195.28,112.199 h 0.27 c 4.18,6.746 11.48,12.422 20.8,12.422 2.02,0 3.1,-0.273 4.45,-0.812 v -10.528 h -0.4 c -1.62,0.539 -2.71,0.676 -4.86,0.676 -10.81,0 -20.26,-8.105 -20.26,-21.2031 V 53.9961 h -10.94 v 69.8129 h 10.94 v -11.61" /><path
         id="path76"
         style="fill:#231f20;fill-opacity:1;fill-rule:nonzero;stroke:none"
         d="m 2253.72,150.547 h 68.2 v -10.664 h -56.04 v -30.516 h 50.91 V 99.1016 h -50.91 V 65.207 h 57.66 V 53.9961 h -69.82 v 96.5509" /><path
         id="path78"
         style="fill:#231f20;fill-opacity:1;fill-rule:nonzero;stroke:none"
         d="m 2345.12,114.629 h 0.26 c 5,6.613 12.02,10.801 22.15,10.801 14.59,0 23.49,-7.969 23.49,-22.41 V 53.9961 h -10.93 V 102.07 c 0,9.043 -5.94,14.18 -15.8,14.18 -11.08,0 -19.17,-7.832 -19.17,-19.3164 V 53.9961 h -10.94 v 69.8129 h 10.94 v -9.18" /><path
         id="path80"
         style="fill:#231f20;fill-opacity:1;fill-rule:nonzero;stroke:none"
         d="m 2453.59,91.5352 c 0,15.2618 -6.48,24.7148 -21.34,24.7148 -13.09,0 -19.71,-10.262 -19.71,-25.3906 0,-15.2617 6.89,-25.2539 19.85,-25.2539 16.07,0 21.2,11.2109 21.2,25.9297 z m -50.1,-41.4571 h 10.13 c 1.09,-7.6953 8.37,-10.664 19.17,-10.664 12.83,0 19.99,5.8007 19.99,17.9609 v 9.8516 h -0.27 c -5.13,-6.6094 -10.67,-10.8008 -20.66,-10.8008 -18.09,0 -30.51,14.4531 -30.51,34.5703 0,21.7379 13.63,34.4339 29.84,34.4339 10.13,0 16.6,-3.914 21.33,-10.535 h 0.27 v 8.914 h 10.94 V 57.7734 c 0,-18.3593 -12.15,-27 -30.66,-27 -18.09,0 -28.35,7.2852 -29.57,19.3047" /><path
         id="path82"
         style="fill:#231f20;fill-opacity:1;fill-rule:nonzero;stroke:none"
         d="m 2478.09,123.809 h 10.94 V 53.9961 h -10.94 z m 0,26.738 h 10.94 v -13.504 h -10.94 v 13.504" /><path
         id="path84"
         style="fill:#231f20;fill-opacity:1;fill-rule:nonzero;stroke:none"
         d="m 2514.16,114.629 h 0.26 c 5,6.613 12.02,10.801 22.15,10.801 14.59,0 23.5,-7.969 23.5,-22.41 V 53.9961 h -10.94 V 102.07 c 0,9.043 -5.94,14.18 -15.8,14.18 -11.08,0 -19.17,-7.832 -19.17,-19.3164 V 53.9961 h -10.94 v 69.8129 h 10.94 v -9.18" /><path
         id="path86"
         style="fill:#231f20;fill-opacity:1;fill-rule:nonzero;stroke:none"
         d="m 2581.85,94.5039 h 41.99 c -0.67,13.9141 -7.83,22.4221 -20.38,22.4221 -12.96,0 -19.99,-9.727 -21.61,-22.4221 z m -11.47,-5.6641 c 0,20.2542 13.23,36.7262 33.08,36.7262 20.93,0 32.14,-16.199 32.14,-39.2965 h -54.02 c 0.81,-14.1797 8.51,-24.9804 22.56,-24.9804 10.13,0 16.87,4.8632 19.31,14.3086 h 10.66 c -3.23,-14.9805 -14.18,-23.4961 -29.97,-23.4961 -21.34,0 -33.76,16.4726 -33.76,36.7382" /><path
         id="path88"
         style="fill:#231f20;fill-opacity:1;fill-rule:nonzero;stroke:none"
         d="m 2653.88,94.5039 h 41.99 c -0.68,13.9141 -7.84,22.4221 -20.39,22.4221 -12.96,0 -19.98,-9.727 -21.6,-22.4221 z m -11.48,-5.6641 c 0,20.2542 13.23,36.7262 33.08,36.7262 20.93,0 32.15,-16.199 32.15,-39.2965 h -54.03 c 0.81,-14.1797 8.51,-24.9804 22.56,-24.9804 10.13,0 16.87,4.8632 19.31,14.3086 h 10.66 c -3.23,-14.9805 -14.18,-23.4961 -29.97,-23.4961 -21.34,0 -33.76,16.4726 -33.76,36.7382" /><path
         id="path90"
         style="fill:#231f20;fill-opacity:1;fill-rule:nonzero;stroke:none"
         d="m 2728.93,112.199 h 0.27 c 4.19,6.746 11.48,12.422 20.8,12.422 2.02,0 3.1,-0.273 4.45,-0.812 v -10.528 h -0.4 c -1.62,0.539 -2.71,0.676 -4.86,0.676 -10.8,0 -20.26,-8.105 -20.26,-21.2031 V 53.9961 H 2718 v 69.8129 h 10.93 v -11.61" /><path
         id="path92"
         style="fill:#231f20;fill-opacity:1;fill-rule:nonzero;stroke:none"
         d="m 2762.75,123.809 h 10.94 V 53.9961 h -10.94 z m 0,26.738 h 10.94 v -13.504 h -10.94 v 13.504" /><path
         id="path94"
         style="fill:#231f20;fill-opacity:1;fill-rule:nonzero;stroke:none"
         d="m 2798.81,114.629 h 0.26 c 5,6.613 12.02,10.801 22.15,10.801 14.59,0 23.49,-7.969 23.49,-22.41 V 53.9961 h -10.93 V 102.07 c 0,9.043 -5.94,14.18 -15.8,14.18 -11.08,0 -19.17,-7.832 -19.17,-19.3164 V 53.9961 h -10.94 v 69.8129 h 10.94 v -9.18" /><path
         id="path96"
         style="fill:#231f20;fill-opacity:1;fill-rule:nonzero;stroke:none"
         d="m 2907.29,91.5352 c 0,15.2618 -6.48,24.7148 -21.33,24.7148 -13.1,0 -19.72,-10.262 -19.72,-25.3906 0,-15.2617 6.88,-25.2539 19.85,-25.2539 16.08,0 21.2,11.2109 21.2,25.9297 z M 2857.2,50.0781 h 10.12 c 1.09,-7.6953 8.37,-10.664 19.17,-10.664 12.83,0 19.99,5.8007 19.99,17.9609 v 9.8516 h -0.27 c -5.13,-6.6094 -10.66,-10.8008 -20.66,-10.8008 -18.09,0 -30.51,14.4531 -30.51,34.5703 0,21.7379 13.63,34.4339 29.84,34.4339 10.13,0 16.6,-3.914 21.33,-10.535 h 0.27 v 8.914 h 10.94 V 57.7734 c 0,-18.3593 -12.15,-27 -30.65,-27 -18.1,0 -28.36,7.2852 -29.57,19.3047" /></g></g></svg>